# xmcd CD database file
#
# Track frame offsets:
#	150
#	27091
#	60491
#	81986
#	107468
#	134423
#	154056
#	167014
#	178416
#	184444
#	206778
#	245116
#	271256
#	275556
#
# Disc length: 4052 seconds
#
# Revision: 0
# Processed by: cddbd v1.5.2PL0 Copyright (c) Steve Scherf et al.
# Submitted via: CDex 1.70beta3
#
DISCID=cf0fd20e
DTITLE=Sibitt - Sugadairo - 詩種
DYEAR=2012
DGENRE=Jazz
TTITLE0=白猿と赤鼻天狗 壱
TTITLE1=アルカロイド -雑木林は愛の詩-
TTITLE2=いざよいうた
TTITLE3=白猿と赤鼻天狗 弐
TTITLE4=珠算遊戯
TTITLE5=白猿と赤鼻天狗 参
TTITLE6=謎
TTITLE7=白猿と赤鼻天狗 四
TTITLE8=カムトナル
TTITLE9=狐の嫁入り
TTITLE10=白猿と赤鼻天狗 伍
TTITLE11=わとなり
TTITLE12=白猿と赤鼻天狗 陸
TTITLE13=ニルヴァーナ -涅槃寂静-
EXTD=YEAR: 2012
EXTT0=
EXTT1=
EXTT2=
EXTT3=
EXTT4=
EXTT5=
EXTT6=
EXTT7=
EXTT8=
EXTT9=
EXTT10=
EXTT11=
EXTT12=
EXTT13=
PLAYORDER=
